 <svg version="1.0" xmlns="http://www.w3.org/2000/svg" width="700.000000pt" height="856.000000pt" viewBox="0 0 700.000000 856.000000" preserveAspectRatio="xMidYMid meet">
<metadata>
Created by potrace 1.12, written by Peter Selinger 2001-2015
</metadata>
<g transform="translate(0.000000,856.000000) scale(0.100000,-0.100000)" fill="#000000" stroke="none">
<path d="M1385 7378 c-11 -6 -26 -18 -32 -26 -10 -13 -13 -536 -13 -2542 l0
-2527 21 -19 c20 -18 49 -19 712 -22 647 -2 709 0 749 22 2 1 16 2540 16 2841
0 17 -2 531 -4 1143 l-4 1113 -35 15 c-29 12 -144 14 -712 14 -471 -1 -684 -4
-698 -12z"></path>
<path d="M4245 7383 c-33 -8 -52 -31 -65 -78 -7 -24 -27 -62 -46 -83 -18 -21
-44 -64 -58 -95 -13 -31 -38 -76 -53 -99 -16 -24 -37 -62 -48 -86 -10 -23 -25
-47 -32 -54 -8 -6 -28 -39 -45 -72 -17 -34 -43 -75 -59 -93 -15 -18 -35 -59
-45 -92 -10 -36 -30 -76 -50 -100 -19 -21 -43 -61 -55 -87 -11 -27 -31 -62
-43 -79 -12 -16 -38 -59 -58 -95 -65 -121 -120 -215 -139 -235 -9 -11 -27 -42
-39 -69 -11 -27 -32 -63 -47 -80 -14 -17 -38 -58 -53 -91 -15 -33 -37 -68 -48
-79 -12 -10 -33 -49 -47 -85 -16 -44 -36 -75 -54 -89 -20 -14 -36 -41 -50 -85
-12 -36 -31 -73 -43 -83 -11 -11 -33 -46 -49 -78 -16 -32 -49 -79 -74 -104
-25 -24 -48 -55 -51 -69 -8 -28 26 -108 67 -160 15 -18 35 -63 44 -100 10 -38
32 -95 50 -128 18 -33 40 -85 50 -115 10 -30 30 -80 46 -110 15 -31 42 -98 60
-150 18 -52 42 -111 54 -130 25 -41 40 -79 54 -136 6 -22 25 -61 41 -86 20
-31 36 -74 46 -125 11 -52 29 -100 54 -143 21 -36 43 -89 50 -118 7 -29 24
-69 38 -90 33 -49 48 -87 56 -142 4 -29 18 -60 41 -88 22 -29 38 -62 45 -100
6 -31 26 -82 45 -112 18 -30 40 -82 50 -114 9 -33 32 -90 50 -127 19 -36 41
-97 50 -134 8 -37 31 -93 49 -124 19 -31 40 -81 47 -111 20 -80 89 -213 119
-227 35 -18 1577 -19 1614 -1 14 6 28 19 31 28 7 23 -21 95 -53 139 -14 19
-38 65 -53 102 -15 36 -41 85 -57 108 -19 26 -34 64 -42 107 -7 38 -22 77 -35
92 -29 35 -43 62 -65 128 -10 29 -32 71 -48 91 -17 21 -38 63 -47 93 -10 30
-32 78 -51 105 -18 28 -40 70 -47 95 -8 25 -31 69 -51 99 -20 29 -36 61 -36
70 0 31 -32 115 -60 156 -15 22 -38 69 -51 104 -12 35 -33 76 -46 91 -12 15
-34 59 -48 98 -14 39 -41 94 -60 122 -19 29 -35 57 -35 64 0 7 -19 50 -41 97
-23 46 -50 108 -60 138 -11 30 -32 75 -48 100 -16 25 -39 72 -51 104 -12 31
-33 70 -46 86 -14 16 -34 56 -45 88 -10 32 -35 81 -53 108 -37 54 -66 139 -66
191 0 56 37 158 69 189 17 15 38 50 46 76 9 26 30 65 47 86 16 21 44 65 60 98
17 33 39 71 50 84 10 14 27 44 38 69 11 24 35 65 53 90 18 26 41 64 50 85 10
22 30 55 46 75 16 21 35 54 42 75 8 22 28 55 45 75 17 21 41 57 54 82 12 24
38 66 56 93 19 27 34 55 34 61 0 7 18 39 41 71 22 32 51 81 64 109 12 28 34
62 49 76 15 13 33 47 42 76 10 34 29 67 54 92 25 26 43 59 54 94 9 32 27 65
45 82 17 16 42 60 56 96 14 37 35 76 47 86 11 11 30 39 43 64 13 25 33 54 45
65 26 24 55 78 64 122 7 28 4 33 -23 47 -26 14 -115 16 -743 15 -392 -1 -722
-4 -733 -6z"></path>
</g>
</svg>