 <svg version="1.0" xmlns="http://www.w3.org/2000/svg" width="700.000000pt" height="329.000000pt" viewBox="0 0 700.000000 329.000000" preserveAspectRatio="xMidYMid meet">
<metadata>
Created by potrace 1.12, written by Peter Selinger 2001-2015
</metadata>
<g transform="translate(0.000000,329.000000) scale(0.100000,-0.100000)" fill="#000000" stroke="none">
<path d="M5972 2965 c-68 -37 -125 -106 -140 -173 -24 -100 -25 -130 -8 -166
9 -19 16 -40 16 -48 0 -23 88 -106 120 -113 16 -3 34 -13 41 -21 8 -9 32 -14
78 -14 154 0 281 126 281 277 0 42 -5 64 -15 73 -8 7 -15 22 -15 34 0 23 -27
64 -70 106 -70 70 -202 90 -288 45z"></path>
<path d="M520 2838 c0 -2 0 -446 0 -988 l-1 -985 286 0 286 0 0 985 0 985
-286 3 c-157 1 -285 1 -285 0z"></path>
<path d="M1605 2808 c-22 -48 -83 -157 -116 -206 -16 -24 -29 -49 -29 -56 0
-7 -9 -21 -20 -31 -11 -10 -20 -26 -20 -36 0 -10 -4 -20 -9 -23 -4 -3 -42 -62
-82 -132 -41 -69 -84 -142 -96 -163 -12 -20 -27 -46 -32 -59 -12 -26 -47 -77
-76 -110 -19 -23 -19 -23 2 -65 27 -53 113 -253 113 -263 0 -9 34 -85 56 -126
8 -14 14 -34 14 -43 0 -10 10 -39 21 -64 22 -47 32 -70 67 -151 10 -25 35 -83
56 -128 20 -46 36 -89 36 -95 0 -7 7 -25 16 -42 9 -16 23 -52 31 -80 8 -27 20
-56 25 -63 13 -15 653 -18 663 -2 3 5 -5 25 -18 42 -24 32 -37 60 -112 223
-20 44 -41 87 -46 95 -22 37 -69 141 -69 153 0 8 -6 20 -14 26 -8 7 -17 24
-21 39 -4 15 -12 34 -20 42 -7 8 -16 26 -20 40 -4 14 -13 32 -20 40 -6 8 -22
40 -34 70 -22 53 -63 139 -81 170 -5 8 -21 41 -35 72 -24 51 -26 61 -15 92 6
20 16 38 21 42 5 3 16 20 24 37 8 18 24 46 35 62 10 17 26 44 35 60 8 17 24
44 35 60 11 17 25 41 32 55 7 14 26 45 43 70 17 25 34 52 38 60 4 8 18 33 32
55 13 22 31 54 40 70 8 17 26 48 40 70 13 22 29 50 34 63 11 24 43 70 79 115
12 16 20 33 16 38 -3 5 -134 9 -304 9 l-300 0 -15 -32z"></path>
<path d="M2990 2350 c-25 -4 -58 -13 -73 -19 -16 -6 -39 -11 -53 -11 -21 0
-60 -16 -124 -52 -8 -4 -26 -14 -40 -20 -46 -23 -156 -116 -201 -170 -24 -29
-49 -57 -56 -61 -7 -4 -13 -17 -13 -28 0 -12 -9 -32 -20 -46 -11 -14 -20 -34
-20 -43 0 -10 -6 -23 -14 -29 -8 -7 -17 -35 -21 -64 -4 -29 -14 -69 -22 -89
-19 -47 -15 -256 5 -280 6 -8 15 -37 18 -64 4 -27 12 -56 19 -64 7 -8 16 -25
20 -38 27 -91 216 -301 302 -337 17 -7 33 -18 37 -23 3 -6 19 -13 35 -17 16
-3 35 -13 42 -21 6 -8 23 -14 38 -14 15 0 54 -10 86 -21 52 -18 76 -21 182
-17 71 3 128 10 136 16 8 7 36 15 63 18 27 4 56 12 64 19 8 7 26 16 39 20 45
14 146 90 226 170 65 65 89 98 127 175 26 52 50 111 54 130 3 19 10 40 15 46
5 5 9 80 9 165 1 119 -2 162 -14 191 -9 21 -16 46 -16 57 0 11 -9 35 -20 53
-11 18 -20 41 -20 50 0 21 -112 169 -163 216 -87 80 -239 172 -285 172 -12 0
-38 7 -58 15 -42 17 -221 27 -284 15z m217 -586 c86 -58 119 -147 88 -244 -10
-35 -53 -89 -78 -101 -12 -5 -33 -16 -47 -24 -14 -8 -50 -15 -81 -15 -48 0
-64 5 -110 36 -80 52 -101 88 -102 173 0 61 4 76 28 111 44 63 95 88 187 89
67 1 82 -2 115 -25z"></path>
<path d="M4705 2350 c-16 -5 -57 -16 -90 -24 -59 -14 -171 -67 -250 -117 -38
-25 -164 -158 -178 -189 -4 -8 -21 -40 -37 -70 -17 -30 -30 -64 -30 -75 0 -12
-8 -37 -18 -57 -32 -63 -43 -279 -45 -921 l-2 -597 273 2 272 3 3 670 2 670
28 47 c15 25 43 58 62 72 30 23 43 26 113 26 71 0 83 -3 118 -29 64 -47 86
-77 94 -129 16 -98 -15 -164 -104 -225 -36 -25 -48 -28 -99 -24 -39 4 -63 11
-71 22 -7 10 -22 15 -35 13 l-23 -3 0 -285 c1 -262 2 -286 19 -298 22 -17 254
-12 276 6 7 6 33 14 57 18 25 4 50 10 55 15 6 4 37 22 69 38 84 45 179 124
242 201 30 37 54 72 54 77 0 6 9 21 19 35 11 13 23 36 26 51 4 14 13 31 21 38
8 6 14 27 14 46 0 19 7 47 15 64 23 43 23 292 1 334 -9 17 -16 44 -16 60 0 17
-9 47 -20 68 -11 20 -20 43 -20 50 0 8 -9 22 -20 32 -11 10 -20 25 -20 33 0
19 -223 242 -242 242 -8 0 -23 9 -33 20 -10 11 -24 20 -32 20 -8 0 -31 9 -53
20 -22 11 -51 20 -65 20 -14 0 -40 7 -56 16 -37 18 -228 28 -274 14z"></path>
<path d="M5810 2313 c0 -5 0 -332 0 -728 l0 -720 275 -3 275 -2 0 730 0 730
-275 0 c-151 0 -275 -3 -275 -7z"></path>
</g>
</svg>